<svg width="36" height="36" viewBox="0 0 36 36" fill="none" xmlns="http://www.w3.org/2000/svg">
<g clip-path="url(#clip0_4_43)">
<path d="M18.9257 34.5343C18.33 34.7642 17.67 34.7642 17.0743 34.5343V34.5343C12.4218 32.71 8.42691 29.5262 5.61056 25.398C2.79422 21.2698 1.2871 16.3888 1.28572 11.3914V3.85714C1.28572 3.17516 1.55664 2.5211 2.03887 2.03887C2.52111 1.55663 3.17516 1.28571 3.85715 1.28571H32.1429C32.8248 1.28571 33.4789 1.55663 33.9611 2.03887C34.4434 2.5211 34.7143 3.17516 34.7143 3.85714V11.3657C34.7181 16.3675 33.2134 21.2541 30.3967 25.3874C27.58 29.5207 23.5823 32.7084 18.9257 34.5343V34.5343Z" stroke="white" stroke-opacity="0.5" stroke-width="4" stroke-linecap="round" stroke-linejoin="round"/>
<path d="M21.8572 14.1429H14.1429C12.7227 14.1429 11.5714 15.2941 11.5714 16.7143V21.8571C11.5714 23.2773 12.7227 24.4286 14.1429 24.4286H21.8572C23.2773 24.4286 24.4286 23.2773 24.4286 21.8571V16.7143C24.4286 15.2941 23.2773 14.1429 21.8572 14.1429Z" stroke="white" stroke-opacity="0.5" stroke-width="4" stroke-linecap="round" stroke-linejoin="round"/>
<path d="M21.8572 14.1429V11.5714C21.8572 11.0649 21.7574 10.5633 21.5635 10.0954C21.3697 9.62739 21.0856 9.20219 20.7274 8.84402C20.3693 8.48585 19.944 8.20173 19.4761 8.00789C19.0081 7.81405 18.5065 7.71429 18 7.71429C17.4935 7.71429 16.9919 7.81405 16.5239 8.00789C16.056 8.20173 15.6308 8.48585 15.2726 8.84402C14.9144 9.20219 14.6303 9.62739 14.4365 10.0954C14.2426 10.5633 14.1429 11.0649 14.1429 11.5714V14.1429" stroke="white" stroke-opacity="0.5" stroke-width="4" stroke-linecap="round" stroke-linejoin="round"/>
</g>
<defs>
<clipPath id="clip0_4_43">
<rect width="36" height="36" fill="white"/>
</clipPath>
</defs>
</svg>
